<?xml version="1.0" encoding="utf-8"?>
<!-- Generator: Adobe Illustrator 21.0.0, SVG Export Plug-In . SVG Version: 6.00 Build 0)  -->
<svg version="1.1" id="Layer_1" xmlns="http://www.w3.org/2000/svg" xmlns:xlink="http://www.w3.org/1999/xlink" x="0px" y="0px"
	 viewBox="0 0 468 288" style="enable-background:new 0 0 468 288;" xml:space="preserve">
<style type="text/css">
	.st0{clip-path:url(#SVGID_3_);fill:url(#SVGID_4_);}
	.st1{clip-path:url(#SVGID_3_);}
	.st2{fill:url(#SVGID_5_);}
	.st3{fill:url(#SVGID_6_);}
	.st4{fill:url(#SVGID_7_);}
	.st5{fill:url(#SVGID_8_);}
	.st6{fill:url(#SVGID_9_);}
	.st7{fill:url(#SVGID_10_);}
	.st8{fill:url(#SVGID_11_);}
	.st9{fill:url(#SVGID_12_);}
</style>
<g>
	<g>
		<defs>
			<rect id="SVGID_1_" x="0" width="468" height="288"/>
		</defs>
		<linearGradient id="SVGID_2_" gradientUnits="userSpaceOnUse" x1="417" y1="-39" x2="36.8416" y2="341.1584">
			<stop  offset="0" style="stop-color:#9D3ADF"/>
			<stop  offset="0.2061" style="stop-color:#8542D8"/>
			<stop  offset="0.6385" style="stop-color:#4857C6"/>
			<stop  offset="1" style="stop-color:#106AB6"/>
		</linearGradient>
		<use xlink:href="#SVGID_1_"  style="overflow:visible;fill:url(#SVGID_2_);"/>
		<clipPath id="SVGID_3_">
			<use xlink:href="#SVGID_1_"  style="overflow:visible;"/>
		</clipPath>
		
			<linearGradient id="SVGID_4_" gradientUnits="userSpaceOnUse" x1="203.202" y1="47.5859" x2="317.0652" y2="241.5392" gradientTransform="matrix(0.9836 -1.130000e-02 -1.130000e-02 0.9922 -28.3396 -19.583)">
			<stop  offset="0" style="stop-color:#000000"/>
			<stop  offset="0.2295" style="stop-color:#050505"/>
			<stop  offset="0.4926" style="stop-color:#131313"/>
			<stop  offset="0.7711" style="stop-color:#292929"/>
			<stop  offset="1" style="stop-color:#424242"/>
		</linearGradient>
		<path class="st0" d="M45.9,78.8c24-40.5,58.5-48,100.2-47c35.7,0.9,74.4,10.3,107.4-3.6c32.9-13.8,55.6-38.7,91.1-37.3
			c47.5,1.9,68,39.9,65.1,77.3c-4,51.8-48.5,78.1-92.7,75.3c-36.6-2.3-75.3-5.6-107.9,18.4c-30.1,22.1-50.5,67.6-92.1,71.8
			C34.9,242,1.6,153.8,45.9,78.8z"/>
		<g class="st1">
			<linearGradient id="SVGID_5_" gradientUnits="userSpaceOnUse" x1="72.4154" y1="342.8185" x2="446.7409" y2="28.4504">
				<stop  offset="0" style="stop-color:#000000"/>
				<stop  offset="0.1942" style="stop-color:#050505"/>
				<stop  offset="0.4169" style="stop-color:#131313"/>
				<stop  offset="0.6536" style="stop-color:#2A2A2A"/>
				<stop  offset="0.8985" style="stop-color:#494949"/>
				<stop  offset="1" style="stop-color:#595959"/>
			</linearGradient>
			<path class="st2" d="M389.6,48.7L389.6,48.7c-18.6-18.6-49-18.6-67.6,0L43.6,327.1c-18.6,18.6-18.6,49,0,67.6l0,0
				c18.6,18.6,49,18.6,67.6,0l278.4-278.4C408.2,97.7,408.2,67.3,389.6,48.7z"/>
			
				<linearGradient id="SVGID_6_" gradientUnits="userSpaceOnUse" x1="-2240.9045" y1="-2590.1738" x2="-2007.7909" y2="-2785.9485" gradientTransform="matrix(-1 0 0 -1 -1927.9761 -2449.8916)">
				<stop  offset="0" style="stop-color:#000000"/>
				<stop  offset="0.1942" style="stop-color:#050505"/>
				<stop  offset="0.4169" style="stop-color:#131313"/>
				<stop  offset="0.6536" style="stop-color:#2A2A2A"/>
				<stop  offset="0.8985" style="stop-color:#494949"/>
				<stop  offset="1" style="stop-color:#595959"/>
			</linearGradient>
			<path class="st3" d="M115.4,323.4L115.4,323.4c11.6,11.6,30.5,11.6,42.1,0L330.9,150c11.6-11.6,11.6-30.5,0-42.1l0,0
				c-11.6-11.6-30.5-11.6-42.1,0L115.4,281.3C103.8,292.9,103.8,311.9,115.4,323.4z"/>
			
				<linearGradient id="SVGID_7_" gradientUnits="userSpaceOnUse" x1="-2173.2754" y1="-2641.8035" x2="-2013.1332" y2="-2776.2952" gradientTransform="matrix(-1 0 0 -1 -1761.9761 -2519.8916)">
				<stop  offset="0" style="stop-color:#000000"/>
				<stop  offset="0.1942" style="stop-color:#050505"/>
				<stop  offset="0.4169" style="stop-color:#131313"/>
				<stop  offset="0.6536" style="stop-color:#2A2A2A"/>
				<stop  offset="0.8985" style="stop-color:#494949"/>
				<stop  offset="1" style="stop-color:#595959"/>
			</linearGradient>
			<path class="st4" d="M275.6,247.7L275.6,247.7c8,8,21,8,28.9,0l119.1-119.1c8-8,8-21,0-28.9l0,0c-8-8-21-8-28.9,0L275.6,218.8
				C267.6,226.8,267.6,239.8,275.6,247.7z"/>
			<g>
				<linearGradient id="SVGID_8_" gradientUnits="userSpaceOnUse" x1="307.0984" y1="51.9991" x2="429.4319" y2="51.9991">
					<stop  offset="0" style="stop-color:#918D60"/>
					<stop  offset="0.3772" style="stop-color:#555338"/>
					<stop  offset="0.799" style="stop-color:#181710"/>
					<stop  offset="1" style="stop-color:#000000"/>
				</linearGradient>
				<path class="st5" d="M307.6,113.2c-0.1,0-0.3,0-0.4-0.1c-0.2-0.2-0.2-0.5,0-0.7L428.6-9c0.2-0.2,0.5-0.2,0.7,0
					c0.2,0.2,0.2,0.5,0,0.7L308,113C307.9,113.1,307.7,113.2,307.6,113.2z"/>
			</g>
			<g>
				<linearGradient id="SVGID_9_" gradientUnits="userSpaceOnUse" x1="155.0984" y1="212.6656" x2="368.0984" y2="212.6656">
					<stop  offset="0" style="stop-color:#918D60"/>
					<stop  offset="0.3772" style="stop-color:#555338"/>
					<stop  offset="0.799" style="stop-color:#181710"/>
					<stop  offset="1" style="stop-color:#000000"/>
				</linearGradient>
				<path class="st6" d="M155.6,319.2c-0.1,0-0.3,0-0.4-0.1c-0.2-0.2-0.2-0.5,0-0.7l212-212c0.2-0.2,0.5-0.2,0.7,0
					c0.2,0.2,0.2,0.5,0,0.7L156,319C155.9,319.1,155.7,319.2,155.6,319.2z"/>
			</g>
			<g>
				
					<linearGradient id="SVGID_10_" gradientUnits="userSpaceOnUse" x1="-2274.7651" y1="-2649.999" x2="-2137.7651" y2="-2649.999" gradientTransform="matrix(-1 0 0 -1 -2131.3333 -2390)">
					<stop  offset="0" style="stop-color:#918D60"/>
					<stop  offset="0.3772" style="stop-color:#555338"/>
					<stop  offset="0.799" style="stop-color:#181710"/>
					<stop  offset="1" style="stop-color:#000000"/>
				</linearGradient>
				<path class="st7" d="M6.9,328.5c-0.1,0-0.3,0-0.4-0.1c-0.2-0.2-0.2-0.5,0-0.7l136-136c0.2-0.2,0.5-0.2,0.7,0
					c0.2,0.2,0.2,0.5,0,0.7l-136,136C7.2,328.5,7.1,328.5,6.9,328.5z"/>
			</g>
			<g>
				<linearGradient id="SVGID_11_" gradientUnits="userSpaceOnUse" x1="377.0079" y1="60.3151" x2="408.8911" y2="60.3151">
					<stop  offset="0" style="stop-color:#918D60"/>
					<stop  offset="0.3772" style="stop-color:#555338"/>
					<stop  offset="0.799" style="stop-color:#181710"/>
					<stop  offset="1" style="stop-color:#000000"/>
				</linearGradient>
				<path class="st8" d="M377.5,76.3C377.5,76.3,377.5,76.3,377.5,76.3c-0.3,0-0.5-0.3-0.5-0.5l0.9-9.4c0-0.2,0.2-0.4,0.5-0.5l9-0.8
					l0.8-9c0-0.2,0.2-0.4,0.5-0.5l9-0.8l0.8-9c0-0.2,0.2-0.4,0.5-0.5l9.4-0.9c0.3,0,0.5,0.2,0.5,0.5c0,0.3-0.2,0.5-0.5,0.5l-9,0.8
					l-0.8,9c0,0.2-0.2,0.4-0.5,0.5l-9,0.8l-0.8,9c0,0.2-0.2,0.4-0.5,0.5l-9,0.8l-0.8,9C378,76.1,377.8,76.3,377.5,76.3z"/>
			</g>
			<g>
				<linearGradient id="SVGID_12_" gradientUnits="userSpaceOnUse" x1="45.4313" y1="257.9849" x2="71.353" y2="257.9849">
					<stop  offset="0" style="stop-color:#918D60"/>
					<stop  offset="0.3772" style="stop-color:#555338"/>
					<stop  offset="0.799" style="stop-color:#181710"/>
					<stop  offset="1" style="stop-color:#000000"/>
				</linearGradient>
				<path class="st9" d="M45.9,270.9C45.9,270.9,45.9,270.9,45.9,270.9c-0.3,0-0.5-0.3-0.5-0.5l0.7-7.6c0-0.2,0.2-0.4,0.5-0.5
					l7.2-0.7l0.7-7.2c0-0.2,0.2-0.4,0.5-0.5l7.2-0.7l0.7-7.2c0-0.2,0.2-0.4,0.5-0.5l7.6-0.7c0.3,0,0.5,0.2,0.5,0.5
					c0,0.3-0.2,0.5-0.5,0.5l-7.2,0.7l-0.7,7.2c0,0.2-0.2,0.4-0.5,0.5l-7.2,0.7l-0.7,7.2c0,0.2-0.2,0.4-0.5,0.5l-7.2,0.7l-0.7,7.2
					C46.4,270.8,46.2,270.9,45.9,270.9z"/>
			</g>
		</g>
	</g>
</g>
</svg>
